<?xml version="1.0" standalone="no"?>
<!DOCTYPE svg PUBLIC "-//W3C//DTD SVG 20010904//EN"
 "http://www.w3.org/TR/2001/REC-SVG-20010904/DTD/svg10.dtd">
<svg version="1.0" xmlns="http://www.w3.org/2000/svg"
 width="512.000000pt" height="512.000000pt" viewBox="0 0 512.000000 512.000000"
 preserveAspectRatio="xMidYMid meet">
<metadata>
Created by potrace 1.14, written by Peter Selinger 2001-2017
</metadata>
<g transform="translate(0.000000,512.000000) scale(0.100000,-0.100000)"
fill="#000000" stroke="none">
<path d="M1598 4797 c-81 -37 -185 -215 -205 -346 -6 -41 -5 -156 1 -186 23
-114 66 -201 142 -291 71 -84 97 -141 96 -215 0 -67 -26 -131 -77 -193 -68
-83 -54 -184 31 -233 91 -52 170 -15 260 123 34 54 72 152 80 213 7 43 7 158
0 186 -25 117 -66 201 -142 291 -71 83 -96 140 -96 214 0 63 28 139 66 180 77
82 71 188 -14 247 -28 19 -110 25 -142 10z"/>
<path d="M2495 4791 c-70 -32 -157 -165 -190 -291 -21 -80 -21 -218 1 -290 23
-79 78 -177 130 -235 64 -70 97 -143 96 -215 0 -64 -28 -139 -66 -180 -57 -61
-68 -117 -36 -187 26 -58 87 -89 155 -79 40 6 56 16 95 57 132 138 184 354
130 549 -19 70 -76 171 -131 233 -64 72 -91 133 -91 207 -1 63 31 146 74 190
76 80 54 206 -44 245 -49 19 -74 19 -123 -4z"/>
<path d="M3395 4791 c-66 -29 -156 -162 -185 -271 -20 -75 -21 -83 -21 -155 1
-158 40 -264 143 -386 33 -39 69 -92 80 -117 40 -90 19 -208 -51 -287 -104
-118 -26 -283 123 -261 38 6 55 17 95 57 72 73 131 194 147 299 25 176 -22
334 -142 476 -31 36 -65 85 -75 110 -40 90 -20 210 49 288 61 70 67 156 14
213 -51 55 -108 66 -177 34z"/>
<path d="M74 2685 c-64 -38 -77 -79 -70 -216 3 -63 8 -127 10 -144 7 -44 24
-146 31 -175 2 -14 7 -34 9 -46 21 -107 112 -341 178 -463 200 -366 497 -651
870 -834 l96 -47 4 -178 c3 -199 7 -211 77 -250 l39 -22 1242 0 1242 0 40 22
c69 39 78 71 78 263 l0 166 76 35 c431 199 786 571 975 1021 22 54 42 105 45
113 2 8 15 55 29 104 42 144 63 270 71 439 7 133 -7 175 -71 213 l-42 24
-2444 0 -2444 0 -41 -25z m4731 -332 c-8 -69 -10 -78 -30 -170 l-16 -73 -2198
0 -2199 0 -11 47 c-17 67 -31 140 -37 201 l-6 52 2252 0 2252 0 -7 -57z m-186
-580 c-192 -344 -511 -622 -861 -753 -123 -46 -138 -75 -138 -270 l0 -140
-1060 0 -1060 0 0 140 c0 195 -15 224 -138 270 -70 26 -251 116 -273 136 -8 8
-19 14 -23 14 -4 0 -49 31 -99 69 -187 141 -341 315 -452 511 l-34 60 2079 0
2080 0 -21 -37z"/>
</g>
</svg>
